<svg xmlns="http://www.w3.org/2000/svg" width="900" height="1200" viewBox="0 0 900 1200">
  <defs><linearGradient id="bg1222" x1="0" y1="0" x2="0.10" y2="1">
    <stop offset="0" stop-color="#2b2440"/>
    <stop offset="1" stop-color="#5b4a8a"/></linearGradient><radialGradient id="b1222_0"><stop offset="0" stop-color="#9d8ec4" stop-opacity="0.34"/><stop offset="1" stop-color="#2b2440" stop-opacity="0"/></radialGradient><radialGradient id="b1222_1"><stop offset="0" stop-color="#2b2440" stop-opacity="0.31"/><stop offset="1" stop-color="#5b4a8a" stop-opacity="0"/></radialGradient><radialGradient id="b1222_2"><stop offset="0" stop-color="#2b2440" stop-opacity="0.47"/><stop offset="1" stop-color="#5b4a8a" stop-opacity="0"/></radialGradient><radialGradient id="b1222_3"><stop offset="0" stop-color="#2b2440" stop-opacity="0.23"/><stop offset="1" stop-color="#5b4a8a" stop-opacity="0"/></radialGradient><radialGradient id="b1222_4"><stop offset="0" stop-color="#ece8f2" stop-opacity="0.32"/><stop offset="1" stop-color="#5b4a8a" stop-opacity="0"/></radialGradient><radialGradient id="b1222_5"><stop offset="0" stop-color="#5b4a8a" stop-opacity="0.33"/><stop offset="1" stop-color="#2b2440" stop-opacity="0"/></radialGradient></defs><rect width="900" height="1200" fill="url(#bg1222)"/><circle cx="340" cy="298" r="164" fill="url(#b1222_0)"/><circle cx="34" cy="811" r="152" fill="url(#b1222_1)"/><circle cx="124" cy="508" r="200" fill="url(#b1222_2)"/><circle cx="467" cy="281" r="256" fill="url(#b1222_3)"/><circle cx="23" cy="1055" r="209" fill="url(#b1222_4)"/><circle cx="619" cy="1058" r="210" fill="url(#b1222_5)"/><path d="M178,115 Q51,249 332,61" stroke="#ece8f2" stroke-width="3.5" fill="none" stroke-linecap="round" opacity="0.41"/><path d="M38,1071 Q184,773 763,459" stroke="#ece8f2" stroke-width="3.6" fill="none" stroke-linecap="round" opacity="0.33"/><path d="M422,965 Q89,929 256,866" stroke="#5b4a8a" stroke-width="3.1" fill="none" stroke-linecap="round" opacity="0.59"/><path d="M443,906 Q719,140 880,179" stroke="#5b4a8a" stroke-width="5.3" fill="none" stroke-linecap="round" opacity="0.34"/><path d="M389,288 Q568,163 393,840" stroke="#2b2440" stroke-width="2.2" fill="none" stroke-linecap="round" opacity="0.27"/><path d="M356,1006 Q487,259 23,128" stroke="#9d8ec4" stroke-width="11.3" fill="none" stroke-linecap="round" opacity="0.35"/><path d="M767,1117 Q236,109 290,252" stroke="#ece8f2" stroke-width="9.9" fill="none" stroke-linecap="round" opacity="0.34"/></svg>