<svg xmlns="http://www.w3.org/2000/svg" width="1100" height="1500" viewBox="0 0 1100 1500">
  <defs><linearGradient id="bg1407" x1="0" y1="0" x2="0.02" y2="1">
    <stop offset="0" stop-color="#2b2440"/>
    <stop offset="1" stop-color="#5b4a8a"/></linearGradient><radialGradient id="b1407_0"><stop offset="0" stop-color="#2b2440" stop-opacity="0.25"/><stop offset="1" stop-color="#2b2440" stop-opacity="0"/></radialGradient><radialGradient id="b1407_1"><stop offset="0" stop-color="#ece8f2" stop-opacity="0.30"/><stop offset="1" stop-color="#ece8f2" stop-opacity="0"/></radialGradient><radialGradient id="b1407_2"><stop offset="0" stop-color="#5b4a8a" stop-opacity="0.55"/><stop offset="1" stop-color="#ece8f2" stop-opacity="0"/></radialGradient><radialGradient id="b1407_3"><stop offset="0" stop-color="#ece8f2" stop-opacity="0.29"/><stop offset="1" stop-color="#5b4a8a" stop-opacity="0"/></radialGradient><radialGradient id="b1407_4"><stop offset="0" stop-color="#2b2440" stop-opacity="0.46"/><stop offset="1" stop-color="#ece8f2" stop-opacity="0"/></radialGradient><radialGradient id="b1407_5"><stop offset="0" stop-color="#ece8f2" stop-opacity="0.19"/><stop offset="1" stop-color="#9d8ec4" stop-opacity="0"/></radialGradient><radialGradient id="b1407_6"><stop offset="0" stop-color="#2b2440" stop-opacity="0.36"/><stop offset="1" stop-color="#ece8f2" stop-opacity="0"/></radialGradient></defs><rect width="1100" height="1500" fill="url(#bg1407)"/><circle cx="1079" cy="1242" r="424" fill="url(#b1407_0)"/><circle cx="149" cy="1496" r="341" fill="url(#b1407_1)"/><circle cx="507" cy="531" r="199" fill="url(#b1407_2)"/><circle cx="1070" cy="774" r="444" fill="url(#b1407_3)"/><circle cx="372" cy="1308" r="243" fill="url(#b1407_4)"/><circle cx="1083" cy="894" r="235" fill="url(#b1407_5)"/><circle cx="321" cy="970" r="243" fill="url(#b1407_6)"/><path d="M334,119 Q305,1117 1014,1187" stroke="#9d8ec4" stroke-width="3.4" fill="none" stroke-linecap="round" opacity="0.52"/><path d="M202,238 Q90,792 1021,725" stroke="#ece8f2" stroke-width="8.3" fill="none" stroke-linecap="round" opacity="0.31"/><path d="M531,555 Q667,881 244,344" stroke="#ece8f2" stroke-width="9.4" fill="none" stroke-linecap="round" opacity="0.47"/><path d="M670,697 Q682,1257 657,971" stroke="#5b4a8a" stroke-width="2.2" fill="none" stroke-linecap="round" opacity="0.60"/><path d="M55,825 Q507,1238 918,1067" stroke="#9d8ec4" stroke-width="2.8" fill="none" stroke-linecap="round" opacity="0.37"/><path d="M387,787 Q135,86 301,1199" stroke="#2b2440" stroke-width="2.0" fill="none" stroke-linecap="round" opacity="0.22"/></svg>